<?xml version="1.0" standalone="no"?>
<!DOCTYPE svg PUBLIC "-//W3C//DTD SVG 20010904//EN"
 "http://www.w3.org/TR/2001/REC-SVG-20010904/DTD/svg10.dtd">
<svg version="1.0" xmlns="http://www.w3.org/2000/svg"
 width="475.000000pt" height="163.000000pt" viewBox="0 0 475.000000 163.000000"
 preserveAspectRatio="xMidYMid meet">

<g transform="translate(0.000000,163.000000) scale(0.100000,-0.100000)"
fill="#000000" stroke="none">
<path d="M730 1171 c0 -6 -5 -11 -11 -11 -6 0 -81 -39 -165 -87 l-154 -88 0
-221 0 -221 49 -26 49 -27 107 62 c58 35 122 71 141 81 34 17 42 31 24 42 -5
3 -7 0 -4 -9 4 -12 -3 -14 -35 -12 -63 5 -71 16 -71 110 l0 81 45 25 c24 13
47 30 50 37 4 12 -67 -23 -102 -50 -9 -6 -13 -39 -13 -98 l0 -88 35 -12 c40
-15 43 -24 15 -39 -16 -9 -28 -7 -58 10 l-37 21 3 114 3 114 47 27 c26 15 50
31 53 36 3 6 10 10 15 10 16 0 60 27 45 28 -7 0 -51 -21 -97 -47 l-84 -48 0
-121 0 -121 35 -19 c19 -10 35 -22 35 -26 0 -16 -41 -17 -74 -1 l-36 17 0 148
0 148 105 61 c58 34 105 65 105 70 0 4 -51 -21 -112 -56 l-113 -63 -3 -156 -3
-155 40 -23 c39 -22 39 -23 18 -35 -18 -9 -28 -8 -59 10 l-38 21 0 180 1 181
119 69 c66 37 125 75 132 84 7 9 -9 4 -36 -12 -28 -16 -91 -53 -140 -81 l-91
-53 0 -188 0 -188 39 -23 40 -22 -25 -11 c-21 -10 -31 -8 -62 10 l-37 22 0
212 0 211 166 97 c91 53 161 99 155 103 -6 3 -11 1 -11 -4z"/>
<path d="M780 1130 c0 -5 7 -7 15 -4 8 4 15 8 15 10 0 2 -7 4 -15 4 -8 0 -15
-4 -15 -10z"/>
<path d="M786 1072 c-3 -5 1 -9 9 -9 8 0 12 4 9 9 -3 4 -7 8 -9 8 -2 0 -6 -4
-9 -8z"/>
<path d="M2423 984 c-15 -24 -15 -29 -2 -53 11 -20 22 -26 49 -26 27 0 38 6
49 26 13 24 13 29 -2 53 -12 18 -26 26 -47 26 -21 0 -35 -8 -47 -26z"/>
<path d="M795 939 c-4 -6 -4 -13 -1 -16 3 -4 6 -1 6 6 0 7 5 9 10 6 6 -3 10
-1 10 4 0 14 -17 14 -25 0z"/>
<path d="M775 859 c-4 -6 -5 -12 -2 -15 2 -3 7 2 10 11 7 17 1 20 -8 4z"/>
<path d="M1470 838 c-69 -35 -90 -85 -90 -215 l0 -103 50 0 50 0 0 98 c0 114
13 137 80 148 40 6 40 7 40 50 l0 44 -43 0 c-24 0 -62 -10 -87 -22z"/>
<path d="M1730 849 c-63 -25 -100 -85 -100 -160 0 -85 50 -152 128 -170 48
-11 87 -1 116 28 l25 25 7 -26 c6 -24 11 -26 56 -26 44 0 49 2 43 18 -4 9 -11
61 -16 115 -10 115 -30 157 -90 187 -42 22 -126 26 -169 9z m127 -94 c24 -17
39 -71 28 -104 -13 -43 -85 -57 -132 -25 -31 20 -33 94 -3 124 24 24 77 26
107 5z"/>
<path d="M2014 843 c3 -10 34 -87 69 -170 l62 -153 51 0 c50 0 52 1 67 38 8
20 40 97 71 170 l55 133 -51 -3 -50 -3 -39 -105 c-22 -58 -43 -108 -48 -113
-5 -5 -28 43 -52 105 l-44 113 -49 3 c-43 3 -48 1 -42 -15z"/>
<path d="M2420 690 l0 -170 50 0 50 0 0 168 0 168 -50 3 -50 2 0 -171z"/>
<path d="M2715 852 c-2 -2 -9 -5 -17 -6 -36 -6 -78 -39 -98 -78 -33 -63 -19
-148 33 -205 11 -12 24 -20 28 -17 5 3 9 1 9 -4 0 -10 67 -28 85 -23 6 2 15 4
22 5 7 1 21 10 32 20 10 10 25 18 33 20 7 1 19 5 27 10 12 8 11 11 -3 21 -15
12 -15 13 1 26 12 10 15 11 9 1 -4 -7 -2 -20 5 -28 9 -11 9 -18 2 -22 -6 -4
-7 -15 -2 -27 4 -11 8 -14 8 -7 1 18 19 15 24 -5 5 -18 11 38 8 70 -1 9 2 17
7 17 13 0 5 81 -9 94 -7 8 -9 0 -4 -26 5 -24 3 -38 -3 -38 -11 0 -42 28 -42
38 0 3 5 1 12 -6 20 -20 24 -14 20 31 -2 31 -1 38 7 27 23 -32 9 7 -15 45 -14
22 -23 32 -20 23 3 -10 1 -18 -4 -18 -10 0 -14 15 -11 34 1 5 -5 6 -13 3 -9
-4 -15 -1 -13 6 1 7 -7 11 -21 10 -13 -2 -21 1 -18 5 4 7 -71 11 -79 4z m140
-72 c3 -5 1 -10 -4 -10 -6 0 -11 5 -11 10 0 6 2 10 4 10 3 0 8 -4 11 -10z m35
-40 c-6 -11 -13 -20 -16 -20 -2 0 0 9 6 19 5 11 7 28 4 38 -5 17 -5 17 6 1 8
-13 8 -23 0 -38z m-70 29 c0 -5 -6 -7 -12 -3 -8 4 -10 3 -5 -2 5 -5 14 -9 20
-9 7 -1 11 -6 10 -13 -2 -7 1 -12 5 -12 4 0 8 -22 8 -50 0 -30 -4 -50 -11 -50
-6 0 -17 -6 -23 -12 -7 -7 -33 -14 -58 -14 -24 -1 -42 1 -39 4 3 3 -4 11 -15
19 -15 11 -20 26 -20 59 0 54 22 76 83 85 23 3 45 7 50 7 4 1 7 -3 7 -9z m7
-155 c-3 -4 -1 -16 5 -28 6 -11 7 -18 3 -14 -5 4 -15 2 -24 -5 -14 -10 -14
-10 -3 4 7 9 12 21 11 25 -2 15 1 24 8 24 3 0 3 -3 0 -6z m80 -46 c-3 -8 -6
-5 -6 6 -1 11 2 17 5 13 3 -3 4 -12 1 -19z"/>
<path d="M728 834 c-25 -13 -28 -20 -28 -68 0 -46 4 -56 24 -70 19 -12 27 -13
32 -3 4 6 4 9 0 5 -17 -15 -46 27 -46 68 0 33 5 43 25 54 14 7 25 17 25 22 0
10 1 10 -32 -8z"/>
<path d="M922 795 c0 -16 2 -22 5 -12 2 9 2 23 0 30 -3 6 -5 -1 -5 -18z"/>
<path d="M3046 758 c3 -5 10 -6 15 -3 13 9 11 12 -6 12 -8 0 -12 -4 -9 -9z"/>
<path d="M775 599 c-9 -14 -2 -20 14 -10 8 6 9 11 3 15 -6 3 -14 1 -17 -5z"/>
<path d="M660 534 c-104 -61 -105 -62 -99 -69 7 -6 199 105 199 116 0 12 8 16
-100 -47z"/>
<path d="M687 482 c-42 -26 -74 -48 -69 -50 13 -4 141 71 146 86 3 6 4 12 3
11 -1 0 -37 -22 -80 -47z"/>
<path d="M735 439 c-4 -6 -4 -13 -1 -16 3 -4 6 -1 6 6 0 7 5 9 12 5 7 -4 8 -3
4 4 -9 15 -13 15 -21 1z"/>
<path d="M693 417 c-22 -9 -32 -27 -15 -27 11 1 46 29 41 34 -2 2 -14 -1 -26
-7z"/>
<path d="M735 370 c-3 -5 -1 -10 4 -10 6 0 11 5 11 10 0 6 -2 10 -4 10 -3 0
-8 -4 -11 -10z"/>
</g>
</svg>
